<svg width="3193" height="586" viewBox="0 0 3193 586" fill="none" xmlns="http://www.w3.org/2000/svg">
<line x1="431.561" y1="504.917" x2="3182.01" y2="504.917" stroke="#266F94" stroke-width="20" stroke-linecap="round" stroke-linejoin="round"/>
<path d="M581.688 389.112V440.49H545.183V289.061H605.609C617.188 289.061 627.415 291.21 636.29 295.509C645.234 299.738 652.133 305.805 656.987 313.709C661.91 321.544 664.371 330.454 664.371 340.438C664.371 355.207 659.067 367.029 648.458 375.904C637.919 384.709 623.428 389.112 604.985 389.112H581.688ZM581.688 360.927H605.609C612.681 360.927 618.055 359.159 621.729 355.623C625.474 352.087 627.346 347.095 627.346 340.646C627.346 333.574 625.439 327.923 621.625 323.694C617.812 319.464 612.612 317.315 606.025 317.246H581.688V360.927ZM738.06 387.032H718.299V440.49H681.794V289.061H741.388C759.346 289.061 773.387 293.047 783.51 301.021C793.633 308.995 798.694 320.262 798.694 334.822C798.694 345.361 796.545 354.098 792.246 361.031C788.016 367.965 781.36 373.581 772.277 377.88L803.894 438.93V440.49H764.789L738.06 387.032ZM718.299 358.847H741.388C748.322 358.847 753.522 357.044 756.989 353.439C760.525 349.764 762.293 344.668 762.293 338.15C762.293 331.633 760.525 326.537 756.989 322.862C753.453 319.118 748.252 317.246 741.388 317.246H718.299V358.847ZM946.85 367.896C946.85 382.664 944.111 395.734 938.634 407.105C933.156 418.476 925.356 427.247 915.233 433.418C905.179 439.52 893.704 442.57 880.807 442.57C867.911 442.57 856.47 439.624 846.486 433.73C836.502 427.767 828.701 419.273 823.085 408.249C817.538 397.225 814.626 384.571 814.349 370.288V361.759C814.349 346.921 817.053 333.852 822.461 322.55C827.939 311.179 835.739 302.408 845.862 296.237C856.054 290.066 867.634 286.98 880.599 286.98C893.427 286.98 904.867 290.031 914.921 296.133C924.974 302.234 932.775 310.936 938.322 322.238C943.938 333.47 946.781 346.367 946.85 360.927V367.896ZM909.72 361.551C909.72 346.505 907.19 335.1 902.128 327.334C897.136 319.499 889.96 315.582 880.599 315.582C862.295 315.582 852.622 329.31 851.582 356.767L851.478 367.896C851.478 382.733 853.94 394.139 858.863 402.113C863.785 410.086 871.1 414.073 880.807 414.073C890.029 414.073 897.136 410.156 902.128 402.321C907.12 394.486 909.651 383.219 909.72 368.52V361.551ZM963.545 440.49V289.061H1012.32C1025.7 289.061 1037.73 292.111 1048.41 298.213C1059.09 304.245 1067.41 312.808 1073.37 323.902C1079.4 334.926 1082.46 347.303 1082.53 361.031V368C1082.53 381.867 1079.58 394.312 1073.68 405.337C1067.86 416.292 1059.61 424.89 1048.93 431.13C1038.32 437.301 1026.47 440.421 1013.36 440.49H963.545ZM1000.05 317.246V412.409H1012.74C1023.21 412.409 1031.25 408.7 1036.87 401.281C1042.48 393.792 1045.29 382.699 1045.29 368V361.447C1045.29 346.817 1042.48 335.793 1036.87 328.374C1031.25 320.955 1023.07 317.246 1012.32 317.246H1000.05ZM1217.89 289.061V388.176C1217.89 399.409 1215.5 409.15 1210.71 417.401C1205.93 425.583 1199.06 431.823 1190.12 436.122C1181.17 440.421 1170.6 442.57 1158.4 442.57C1139.95 442.57 1125.43 437.786 1114.82 428.218C1104.21 418.649 1098.8 405.545 1098.6 388.904V289.061H1135.31V389.632C1135.73 406.204 1143.42 414.489 1158.4 414.489C1165.96 414.489 1171.68 412.409 1175.56 408.249C1179.44 404.089 1181.38 397.329 1181.38 387.968V289.061H1217.89ZM1361.16 389.216C1360.67 399.755 1357.83 409.081 1352.63 417.193C1347.43 425.236 1340.11 431.477 1330.68 435.914C1321.32 440.352 1310.61 442.57 1298.55 442.57C1278.65 442.57 1262.98 436.087 1251.54 423.122C1240.1 410.156 1234.37 391.851 1234.37 368.208V360.719C1234.37 345.881 1236.94 332.916 1242.07 321.822C1247.27 310.659 1254.72 302.061 1264.43 296.029C1274.14 289.927 1285.37 286.876 1298.13 286.876C1316.5 286.876 1331.27 291.73 1342.43 301.437C1353.6 311.075 1359.94 324.387 1361.47 341.375H1325.07C1324.79 332.153 1322.47 325.531 1318.1 321.51C1313.73 317.488 1307.07 315.478 1298.13 315.478C1289.05 315.478 1282.39 318.875 1278.16 325.67C1273.93 332.465 1271.71 343.316 1271.5 358.223V368.936C1271.5 385.091 1273.52 396.635 1277.54 403.569C1281.63 410.502 1288.63 413.969 1298.55 413.969C1306.93 413.969 1313.35 411.993 1317.79 408.041C1322.22 404.089 1324.58 397.814 1324.86 389.216H1361.16ZM1495.17 317.246H1449.72V440.49H1413.21V317.246H1368.59V289.061H1495.17V317.246ZM1636.77 367.896C1636.77 382.664 1634.03 395.734 1628.55 407.105C1623.08 418.476 1615.28 427.247 1605.15 433.418C1595.1 439.52 1583.62 442.57 1570.73 442.57C1557.83 442.57 1546.39 439.624 1536.41 433.73C1526.42 427.767 1518.62 419.273 1513.01 408.249C1507.46 397.225 1504.55 384.571 1504.27 370.288V361.759C1504.27 346.921 1506.97 333.852 1512.38 322.55C1517.86 311.179 1525.66 302.408 1535.78 296.237C1545.97 290.066 1557.55 286.98 1570.52 286.98C1583.35 286.98 1594.79 290.031 1604.84 296.133C1614.89 302.234 1622.7 310.936 1628.24 322.238C1633.86 333.47 1636.7 346.367 1636.77 360.927V367.896ZM1599.64 361.551C1599.64 346.505 1597.11 335.1 1592.05 327.334C1587.06 319.499 1579.88 315.582 1570.52 315.582C1552.22 315.582 1542.54 329.31 1541.5 356.767L1541.4 367.896C1541.4 382.733 1543.86 394.139 1548.78 402.113C1553.71 410.086 1561.02 414.073 1570.73 414.073C1579.95 414.073 1587.06 410.156 1592.05 402.321C1597.04 394.486 1599.57 383.219 1599.64 368.52V361.551ZM1731.57 400.241C1731.57 394.902 1729.67 390.742 1725.85 387.76C1722.11 384.779 1715.49 381.693 1705.99 378.504C1696.49 375.314 1688.72 372.229 1682.69 369.248C1663.07 359.61 1653.26 346.367 1653.26 329.518C1653.26 321.128 1655.68 313.744 1660.54 307.365C1665.46 300.917 1672.39 295.925 1681.34 292.389C1690.28 288.783 1700.34 286.98 1711.5 286.98C1722.38 286.98 1732.13 288.922 1740.72 292.805C1749.39 296.688 1756.12 302.234 1760.9 309.445C1765.69 316.587 1768.08 324.769 1768.08 333.99H1731.68C1731.68 327.819 1729.77 323.035 1725.96 319.638C1722.21 316.24 1717.12 314.542 1710.67 314.542C1704.15 314.542 1698.98 315.998 1695.17 318.91C1691.43 321.752 1689.55 325.393 1689.55 329.83C1689.55 333.713 1691.63 337.249 1695.79 340.438C1699.95 343.559 1707.27 346.817 1717.74 350.215C1728.21 353.543 1736.81 357.148 1743.53 361.031C1759.9 370.461 1768.08 383.461 1768.08 400.033C1768.08 413.276 1763.08 423.676 1753.1 431.234C1743.12 438.792 1729.42 442.57 1712.02 442.57C1699.75 442.57 1688.62 440.386 1678.63 436.018C1668.72 431.581 1661.23 425.548 1656.17 417.921C1651.18 410.225 1648.68 401.385 1648.68 391.4H1685.29C1685.29 399.513 1687.37 405.51 1691.53 409.393C1695.76 413.207 1702.59 415.113 1712.02 415.113C1718.05 415.113 1722.8 413.831 1726.27 411.265C1729.8 408.63 1731.57 404.956 1731.57 400.241ZM1894.34 399.305L1924.5 289.061H1965.27L1914.31 440.49H1874.37L1823.83 289.061H1864.28L1894.34 399.305ZM2060.28 412.201H2010.26L2001.52 440.49H1962.52L2018.06 289.061H2052.38L2108.33 440.49H2069.12L2060.28 412.201ZM2018.99 384.016H2051.55L2035.22 331.494L2018.99 384.016ZM2173.6 387.032H2153.84V440.49H2117.33V289.061H2176.92C2194.88 289.061 2208.92 293.047 2219.05 301.021C2229.17 308.995 2234.23 320.262 2234.23 334.822C2234.23 345.361 2232.08 354.098 2227.78 361.031C2223.55 367.965 2216.9 373.581 2207.81 377.88L2239.43 438.93V440.49H2200.33L2173.6 387.032ZM2153.84 358.847H2176.92C2183.86 358.847 2189.06 357.044 2192.53 353.439C2196.06 349.764 2197.83 344.668 2197.83 338.15C2197.83 331.633 2196.06 326.537 2192.53 322.862C2188.99 319.118 2183.79 317.246 2176.92 317.246H2153.84V358.847ZM2293.05 440.49H2256.65V289.061H2293.05V440.49ZM2444.53 367.896C2444.53 382.664 2441.79 395.734 2436.31 407.105C2430.84 418.476 2423.04 427.247 2412.91 433.418C2402.86 439.52 2391.39 442.57 2378.49 442.57C2365.59 442.57 2354.15 439.624 2344.17 433.73C2334.18 427.767 2326.38 419.273 2320.77 408.249C2315.22 397.225 2312.31 384.571 2312.03 370.288V361.759C2312.03 346.921 2314.73 333.852 2320.14 322.55C2325.62 311.179 2333.42 302.408 2343.54 296.237C2353.74 290.066 2365.31 286.98 2378.28 286.98C2391.11 286.98 2402.55 290.031 2412.6 296.133C2422.66 302.234 2430.46 310.936 2436 322.238C2441.62 333.47 2444.46 346.367 2444.53 360.927V367.896ZM2407.4 361.551C2407.4 346.505 2404.87 335.1 2399.81 327.334C2394.82 319.499 2387.64 315.582 2378.28 315.582C2359.98 315.582 2350.3 329.31 2349.26 356.767L2349.16 367.896C2349.16 382.733 2351.62 394.139 2356.54 402.113C2361.47 410.086 2368.78 414.073 2378.49 414.073C2387.71 414.073 2394.82 410.156 2399.81 402.321C2404.8 394.486 2407.33 383.219 2407.4 368.52V361.551ZM2539.33 400.241C2539.33 394.902 2537.43 390.742 2533.61 387.76C2529.87 384.779 2523.25 381.693 2513.75 378.504C2504.25 375.314 2496.48 372.229 2490.45 369.248C2470.83 359.61 2461.02 346.367 2461.02 329.518C2461.02 321.128 2463.44 313.744 2468.3 307.365C2473.22 300.917 2480.15 295.925 2489.1 292.389C2498.04 288.783 2508.1 286.98 2519.26 286.98C2530.15 286.98 2539.89 288.922 2548.49 292.805C2557.15 296.688 2563.88 302.234 2568.66 309.445C2573.45 316.587 2575.84 324.769 2575.84 333.99H2539.44C2539.44 327.819 2537.53 323.035 2533.72 319.638C2529.97 316.24 2524.88 314.542 2518.43 314.542C2511.91 314.542 2506.74 315.998 2502.93 318.91C2499.19 321.752 2497.32 325.393 2497.32 329.83C2497.32 333.713 2499.4 337.249 2503.56 340.438C2507.72 343.559 2515.03 346.817 2525.5 350.215C2535.97 353.543 2544.57 357.148 2551.29 361.031C2567.66 370.461 2575.84 383.461 2575.84 400.033C2575.84 413.276 2570.85 423.676 2560.86 431.234C2550.88 438.792 2537.18 442.57 2519.78 442.57C2507.51 442.57 2496.38 440.386 2486.39 436.018C2476.48 431.581 2468.99 425.548 2463.93 417.921C2458.94 410.225 2456.44 401.385 2456.44 391.4H2493.05C2493.05 399.513 2495.13 405.51 2499.29 409.393C2503.52 413.207 2510.35 415.113 2519.78 415.113C2525.81 415.113 2530.56 413.831 2534.03 411.265C2537.56 408.63 2539.33 404.956 2539.33 400.241ZM2603.14 481.26L2585.46 472.939L2589 465.867C2593.85 456.854 2596.38 448.256 2596.59 440.074V414.073H2624.67L2624.57 436.642C2624.5 444.616 2622.45 452.728 2618.43 460.979C2614.41 469.23 2609.31 475.99 2603.14 481.26ZM2821.14 389.216C2820.65 399.755 2817.81 409.081 2812.61 417.193C2807.41 425.236 2800.09 431.477 2790.66 435.914C2781.3 440.352 2770.59 442.57 2758.53 442.57C2738.63 442.57 2722.96 436.087 2711.52 423.122C2700.08 410.156 2694.36 391.851 2694.36 368.208V360.719C2694.36 345.881 2696.92 332.916 2702.05 321.822C2707.25 310.659 2714.71 302.061 2724.41 296.029C2734.12 289.927 2745.35 286.876 2758.11 286.876C2776.49 286.876 2791.25 291.73 2802.42 301.437C2813.58 311.075 2819.92 324.387 2821.45 341.375H2785.05C2784.77 332.153 2782.45 325.531 2778.08 321.51C2773.71 317.488 2767.06 315.478 2758.11 315.478C2749.03 315.478 2742.37 318.875 2738.14 325.67C2733.91 332.465 2731.69 343.316 2731.49 358.223V368.936C2731.49 385.091 2733.5 396.635 2737.52 403.569C2741.61 410.502 2748.61 413.969 2758.53 413.969C2766.92 413.969 2773.33 411.993 2777.77 408.041C2782.21 404.089 2784.56 397.814 2784.84 389.216H2821.14ZM2856.34 406.481C2861.89 406.481 2866.5 408.145 2870.18 411.473C2873.85 414.732 2875.69 418.927 2875.69 424.058C2875.69 429.188 2873.85 433.418 2870.18 436.746C2866.5 440.005 2861.89 441.634 2856.34 441.634C2850.73 441.634 2846.08 439.97 2842.41 436.642C2838.8 433.314 2837 429.119 2837 424.058C2837 418.996 2838.8 414.801 2842.41 411.473C2846.08 408.145 2850.73 406.481 2856.34 406.481ZM2984.64 412.201H2934.61L2925.87 440.49H2886.87L2942.41 289.061H2976.73L3032.69 440.49H2993.48L2984.64 412.201ZM2943.35 384.016H2975.9L2959.57 331.494L2943.35 384.016ZM3061.76 406.481C3067.3 406.481 3071.91 408.145 3075.59 411.473C3079.26 414.732 3081.1 418.927 3081.1 424.058C3081.1 429.188 3079.26 433.418 3075.59 436.746C3071.91 440.005 3067.3 441.634 3061.76 441.634C3056.14 441.634 3051.5 439.97 3047.82 436.642C3044.21 433.314 3042.41 429.119 3042.41 424.058C3042.41 418.996 3044.21 414.801 3047.82 411.473C3051.5 408.145 3056.14 406.481 3061.76 406.481Z" fill="#EC6F18"/>
<path d="M592.514 127.227L625.531 214.959L658.47 127.227H684.177V241.688H664.366V203.953L666.332 153.483L632.528 241.688H618.299L584.574 153.562L586.539 203.953V241.688H566.729V127.227H592.514ZM777.296 215.038H732.958L723.682 241.688H703.006L746.244 127.227H764.089L807.405 241.688H786.651L777.296 215.038ZM738.539 199H771.714L755.127 151.518L738.539 199ZM915.303 241.688H895.414L844.394 160.48V241.688H824.505V127.227H844.394L895.571 208.749V127.227H915.303V241.688ZM1023.2 143.264H987.511V241.688H967.779V143.264H932.403V127.227H1023.2V143.264ZM1109.25 190.589H1062.23V225.808H1117.18V241.688H1042.35V127.227H1116.63V143.264H1062.23V174.866H1109.25V190.589ZM1228.23 241.688H1208.34L1157.32 160.48V241.688H1137.43V127.227H1157.32L1208.5 208.749V127.227H1228.23V241.688ZM1276.77 241.688H1256.96V127.227H1276.77V241.688ZM1331.06 127.227L1364.07 214.959L1397.01 127.227H1422.72V241.688H1402.91V203.953L1404.88 153.483L1371.07 241.688H1356.84L1323.12 153.562L1325.08 203.953V241.688H1305.27V127.227H1331.06ZM1471.34 241.688H1451.53V127.227H1471.34V241.688ZM1566.74 190.589H1519.73V225.808H1574.68V241.688H1499.84V127.227H1574.13V143.264H1519.73V174.866H1566.74V190.589ZM1685.73 241.688H1665.84L1614.82 160.48V241.688H1594.93V127.227H1614.82L1665.99 208.749V127.227H1685.73V241.688ZM1793.62 143.264H1757.93V241.688H1738.2V143.264H1702.83V127.227H1793.62V143.264ZM1905.69 186.108C1905.69 196.904 1903.51 206.705 1899.16 215.509C1894.81 224.314 1888.76 231.153 1881 236.027C1873.25 240.901 1864.65 243.338 1855.22 243.338C1845.89 243.338 1837.35 240.901 1829.59 236.027C1821.83 231.153 1815.73 224.34 1811.27 215.588C1806.82 206.836 1804.57 197.192 1804.51 186.658V182.806C1804.51 172.167 1806.66 162.498 1810.96 153.798C1815.31 145.046 1821.39 138.154 1829.2 133.123C1837.01 128.091 1845.63 125.576 1855.06 125.576C1864.39 125.576 1872.91 127.986 1880.61 132.808C1888.32 137.577 1894.37 144.259 1898.77 152.854C1903.17 161.397 1905.48 170.857 1905.69 181.234V186.108ZM1885.96 182.649C1885.96 170.7 1883.07 160.925 1877.31 153.326C1871.54 145.727 1864.13 141.927 1855.06 141.927C1846.2 141.927 1838.84 145.779 1832.97 153.483C1827.15 161.135 1824.25 171.04 1824.25 183.199V186.108C1824.25 193.812 1825.58 200.835 1828.25 207.176C1830.93 213.465 1834.65 218.366 1839.42 221.877C1844.19 225.388 1849.45 227.144 1855.22 227.144C1863.81 227.144 1870.94 223.685 1876.6 216.767C1882.26 209.797 1885.35 200.599 1885.88 189.174L1885.96 182.649ZM2003.02 181.47L2029.35 127.227H2051.36L2013 199.551V241.688H1993.03V199.551L1954.59 127.227H1976.68L2003.02 181.47ZM2146.64 216.767L2175.73 127.227H2197.59L2156.39 241.688H2137.13L2096.1 127.227H2117.87L2146.64 216.767ZM2281.51 190.589H2234.5V225.808H2289.45V241.688H2214.61V127.227H2288.9V143.264H2234.5V174.866H2281.51V190.589ZM2400.49 241.688H2380.6L2329.58 160.48V241.688H2309.69V127.227H2329.58L2380.76 208.749V127.227H2400.49V241.688ZM2508.39 143.264H2472.7V241.688H2452.97V143.264H2417.59V127.227H2508.39V143.264ZM2582.17 215.038H2537.83L2528.55 241.688H2507.88L2551.12 127.227H2568.96L2612.28 241.688H2591.52L2582.17 215.038ZM2543.41 199H2576.59L2560 151.518L2543.41 199ZM2689.2 212.208C2689.2 207.176 2687.42 203.298 2683.86 200.573C2680.35 197.847 2673.98 195.096 2664.75 192.318C2655.53 189.541 2648.19 186.449 2642.74 183.042C2632.31 176.491 2627.1 167.948 2627.1 157.414C2627.1 148.19 2630.84 140.591 2638.34 134.616C2645.89 128.642 2655.66 125.654 2667.66 125.654C2675.63 125.654 2682.73 127.122 2688.97 130.057C2695.2 132.992 2700.1 137.184 2703.67 142.635C2707.23 148.033 2709.01 154.034 2709.01 160.637H2689.2C2689.2 154.663 2687.32 149.998 2683.54 146.644C2679.82 143.237 2674.48 141.534 2667.5 141.534C2661.01 141.534 2655.95 142.923 2652.33 145.701C2648.77 148.478 2646.99 152.357 2646.99 157.335C2646.99 161.528 2648.93 165.04 2652.8 167.87C2656.68 170.647 2663.08 173.373 2671.99 176.045C2680.9 178.666 2688.05 181.679 2693.45 185.086C2698.85 188.44 2702.8 192.318 2705.32 196.721C2707.83 201.071 2709.09 206.181 2709.09 212.05C2709.09 221.589 2705.42 229.188 2698.09 234.848C2690.8 240.456 2680.9 243.26 2668.37 243.26C2660.09 243.26 2652.46 241.74 2645.49 238.7C2638.58 235.608 2633.18 231.363 2629.3 225.965C2625.47 220.567 2623.56 214.278 2623.56 207.098H2643.45C2643.45 213.596 2645.6 218.628 2649.9 222.191C2654.19 225.755 2660.35 227.537 2668.37 227.537C2675.29 227.537 2680.48 226.148 2683.94 223.371C2687.45 220.541 2689.2 216.819 2689.2 212.208ZM2766.8 241.688V127.227H2801.86C2812.34 127.227 2821.77 129.559 2830.16 134.223C2838.6 138.835 2845.15 145.308 2849.81 153.641C2854.48 161.921 2856.89 171.302 2857.04 181.784V186.187C2857.04 196.878 2854.74 206.443 2850.13 214.88C2845.51 223.266 2839.02 229.791 2830.63 234.455C2822.25 239.119 2812.71 241.53 2802.02 241.688H2766.8ZM2786.61 143.264V225.808H2800.29C2811.82 225.808 2820.83 222.27 2827.33 215.195C2833.83 208.12 2837.08 198.293 2837.08 185.715V182.728C2837.08 170.464 2833.91 160.821 2827.56 153.798C2821.28 146.775 2812.42 143.264 2800.99 143.264H2786.61ZM2945.53 190.589H2898.51V225.808H2953.47V241.688H2878.63V127.227H2952.92V143.264H2898.51V174.866H2945.53V190.589Z" fill="#17ABC3"/>
<path d="M71.1481 212.094C75.2646 188.424 132.896 94.7734 198.76 75.2187L205.449 73.6749L138.028 140.431L69.6355 219.416L71.1481 212.094Z" fill="#17ABC3" stroke="#17ABC3" stroke-width="5"/>
<path d="M259.986 76.7646L68.5679 290.824L68.5678 263.037L232.2 80.0141L259.986 76.7646Z" fill="#C4C4C4" stroke="#C4C4C4" stroke-width="5"/>
<path d="M108.263 325.262L294.67 119.765L264.501 119L107.17 291.91L108.263 325.262Z" fill="#EC6F18" stroke="#EC6F18" stroke-width="5"/>
<path d="M351.844 125.031L112.7 387.283L113.249 360.012L330.136 118.83L351.844 125.031Z" fill="#266F94" stroke="#266F94" stroke-width="5"/>
<path d="M148.971 473.851L405.02 183.454L412.815 202.317L162.735 485.843L148.971 473.851Z" fill="#EC6F18" stroke="#EC6F18" stroke-width="5"/>
<path d="M394.29 300.598L214.567 501.963L191.038 499.219L390.688 273.841L394.29 300.598Z" fill="#17ABC3" stroke="#17ABC3" stroke-width="5"/>
<path d="M399.812 368.181L276.317 506.084L250.216 506.084L399.812 339.192L399.812 368.181Z" fill="#C4C4C4" stroke="#C4C4C4" stroke-width="5"/>
<path d="M309.391 510.028L441.119 360.29L441.119 369.038C441.119 413.805 380.424 475.582 340.779 498.708C328.43 505.912 309.391 510.028 309.391 510.028Z" fill="#EC6F18"/>
<path d="M441.119 360.29L309.391 510.028C309.391 510.028 328.43 505.912 340.779 498.708C380.424 475.582 441.119 413.805 441.119 369.038M441.119 360.29C441.119 360.29 441.119 363.153 441.119 369.038M441.119 360.29L441.119 369.038" stroke="#EC6F18" stroke-width="5"/>
<path d="M35.0873 537.014L467.258 51.9245M485.245 34.0567L485.245 68.0181L467.258 51.9245M485.245 34.0567L447.287 34.0568L467.258 51.9245M485.245 34.0567L467.258 51.9245" stroke="#266F94" stroke-width="25"/>
<path d="M453.359 124.618C484.435 171.543 502.871 230.009 502.871 293.396C502.871 447.993 393.21 573.319 257.937 573.319C200.368 573.319 147.438 550.621 105.625 512.628" stroke="#266F94" stroke-width="25"/>
<path d="M397.894 63.6465C358.221 32.0202 309.972 13.4727 257.933 13.4727C122.66 13.4727 13 138.799 13 293.396C13 353.127 29.3698 408.489 57.2619 453.94" stroke="#17ABC3" stroke-width="25"/>
</svg>
