<svg width="516" height="586" viewBox="0 0 516 586" fill="none" xmlns="http://www.w3.org/2000/svg">
<path d="M71.1481 212.094C75.2646 188.424 132.896 94.7734 198.76 75.2187L205.449 73.6749L138.028 140.431L69.6355 219.416L71.1481 212.094Z" fill="#17ABC3" stroke="#17ABC3" stroke-width="5"/>
<path d="M259.986 76.7646L68.5679 290.824L68.5678 263.037L232.2 80.0141L259.986 76.7646Z" fill="#C4C4C4" stroke="#C4C4C4" stroke-width="5"/>
<path d="M108.263 325.262L294.67 119.765L264.501 119L107.17 291.91L108.263 325.262Z" fill="#EC6F18" stroke="#EC6F18" stroke-width="5"/>
<path d="M351.844 125.031L112.7 387.283L113.249 360.012L330.136 118.83L351.844 125.031Z" fill="#266F94" stroke="#266F94" stroke-width="5"/>
<path d="M148.971 473.851L405.02 183.454L412.815 202.317L162.735 485.843L148.971 473.851Z" fill="#EC6F18" stroke="#EC6F18" stroke-width="5"/>
<path d="M394.29 300.598L214.567 501.963L191.038 499.219L390.688 273.841L394.29 300.598Z" fill="#17ABC3" stroke="#17ABC3" stroke-width="5"/>
<path d="M399.812 368.181L276.317 506.084L250.216 506.084L399.812 339.192L399.812 368.181Z" fill="#C4C4C4" stroke="#C4C4C4" stroke-width="5"/>
<path d="M309.391 510.028L441.119 360.29L441.119 369.038C441.119 413.805 380.424 475.582 340.779 498.708C328.43 505.912 309.391 510.028 309.391 510.028Z" fill="#EC6F18"/>
<path d="M441.119 360.29L309.391 510.028C309.391 510.028 328.43 505.912 340.779 498.708C380.424 475.582 441.119 413.805 441.119 369.038M441.119 360.29C441.119 360.29 441.119 363.153 441.119 369.038M441.119 360.29L441.119 369.038" stroke="#EC6F18" stroke-width="5"/>
<path d="M35.0873 537.014L467.258 51.9245M485.245 34.0567L485.245 68.0181L467.258 51.9245M485.245 34.0567L447.287 34.0568L467.258 51.9245M485.245 34.0567L467.258 51.9245" stroke="#266F94" stroke-width="25"/>
<path d="M453.359 124.618C484.435 171.543 502.871 230.009 502.871 293.396C502.871 447.993 393.21 573.319 257.937 573.319C200.368 573.319 147.438 550.621 105.625 512.628" stroke="#266F94" stroke-width="25"/>
<path d="M397.894 63.6465C358.221 32.0202 309.972 13.4727 257.933 13.4727C122.66 13.4727 13 138.799 13 293.396C13 353.127 29.3698 408.489 57.2619 453.94" stroke="#17ABC3" stroke-width="25"/>
</svg>
