<svg width="2772" height="424" viewBox="0 0 2772 424" fill="none" xmlns="http://www.w3.org/2000/svg">
<line x1="10.5605" y1="413.917" x2="2761.01" y2="413.917" stroke="#266F94" stroke-width="20" stroke-linecap="round" stroke-linejoin="round"/>
<path d="M160.688 298.112V349.49H124.183V198.061H184.609C196.188 198.061 206.415 200.21 215.29 204.509C224.234 208.738 231.133 214.805 235.987 222.709C240.91 230.544 243.371 239.454 243.371 249.438C243.371 264.207 238.067 276.029 227.458 284.904C216.919 293.709 202.428 298.112 183.985 298.112H160.688ZM160.688 269.927H184.609C191.681 269.927 197.055 268.159 200.729 264.623C204.474 261.087 206.346 256.095 206.346 249.646C206.346 242.574 204.439 236.923 200.625 232.694C196.812 228.464 191.612 226.315 185.025 226.246H160.688V269.927ZM317.06 296.032H297.299V349.49H260.794V198.061H320.388C338.346 198.061 352.387 202.047 362.51 210.021C372.633 217.995 377.694 229.262 377.694 243.822C377.694 254.361 375.545 263.098 371.246 270.031C367.016 276.965 360.36 282.581 351.277 286.88L382.894 347.93V349.49H343.789L317.06 296.032ZM297.299 267.847H320.388C327.322 267.847 332.522 266.044 335.989 262.439C339.525 258.764 341.293 253.668 341.293 247.15C341.293 240.633 339.525 235.537 335.989 231.862C332.453 228.118 327.252 226.246 320.388 226.246H297.299V267.847ZM525.85 276.896C525.85 291.664 523.111 304.734 517.634 316.105C512.156 327.476 504.356 336.247 494.233 342.418C484.179 348.52 472.704 351.57 459.807 351.57C446.911 351.57 435.47 348.624 425.486 342.73C415.502 336.767 407.701 328.273 402.085 317.249C396.538 306.225 393.626 293.571 393.349 279.288V270.759C393.349 255.921 396.053 242.852 401.461 231.55C406.939 220.179 414.739 211.408 424.862 205.237C435.054 199.066 446.634 195.98 459.599 195.98C472.427 195.98 483.867 199.031 493.921 205.133C503.974 211.234 511.775 219.936 517.322 231.238C522.938 242.47 525.781 255.367 525.85 269.927V276.896ZM488.72 270.551C488.72 255.505 486.19 244.1 481.128 236.334C476.136 228.499 468.96 224.582 459.599 224.582C441.295 224.582 431.622 238.31 430.582 265.767L430.478 276.896C430.478 291.733 432.94 303.139 437.863 311.113C442.785 319.086 450.1 323.073 459.807 323.073C469.029 323.073 476.136 319.156 481.128 311.321C486.12 303.486 488.651 292.219 488.72 277.52V270.551ZM542.545 349.49V198.061H591.322C604.704 198.061 616.734 201.111 627.412 207.213C638.089 213.245 646.41 221.808 652.373 232.902C658.405 243.926 661.456 256.303 661.525 270.031V277C661.525 290.867 658.578 303.312 652.685 314.337C646.86 325.292 638.609 333.89 627.932 340.13C617.323 346.301 605.467 349.421 592.362 349.49H542.545ZM579.05 226.246V321.409H591.738C602.208 321.409 610.251 317.7 615.867 310.281C621.484 302.792 624.292 291.699 624.292 277V270.447C624.292 255.817 621.484 244.793 615.867 237.374C610.251 229.955 602.069 226.246 591.322 226.246H579.05ZM796.888 198.061V297.176C796.888 308.409 794.496 318.15 789.712 326.401C784.928 334.583 778.063 340.823 769.119 345.122C760.175 349.421 749.601 351.57 737.398 351.57C718.955 351.57 704.429 346.786 693.82 337.218C683.212 327.649 677.804 314.545 677.596 297.904V198.061H714.309V298.632C714.725 315.204 722.421 323.489 737.398 323.489C744.956 323.489 750.676 321.409 754.559 317.249C758.441 313.089 760.383 306.329 760.383 296.968V198.061H796.888ZM940.156 298.216C939.67 308.755 936.828 318.081 931.627 326.193C926.427 334.236 919.112 340.477 909.682 344.914C900.322 349.352 889.61 351.57 877.545 351.57C857.646 351.57 841.976 345.087 830.536 332.122C819.095 319.156 813.375 300.851 813.375 277.208V269.719C813.375 254.881 815.94 241.916 821.071 230.822C826.271 219.659 833.725 211.061 843.432 205.029C853.139 198.927 864.371 195.876 877.129 195.876C895.503 195.876 910.272 200.73 921.435 210.437C932.598 220.075 938.942 233.387 940.468 250.375H904.066C903.789 241.153 901.466 234.531 897.098 230.51C892.73 226.488 886.074 224.478 877.129 224.478C868.046 224.478 861.39 227.875 857.161 234.67C852.931 241.465 850.712 252.316 850.504 267.223V277.936C850.504 294.091 852.515 305.635 856.536 312.569C860.627 319.502 867.63 322.969 877.545 322.969C885.935 322.969 892.349 320.993 896.786 317.041C901.224 313.089 903.581 306.814 903.858 298.216H940.156ZM1074.17 226.246H1028.72V349.49H992.212V226.246H947.594V198.061H1074.17V226.246ZM1215.77 276.896C1215.77 291.664 1213.03 304.734 1207.55 316.105C1202.08 327.476 1194.28 336.247 1184.15 342.418C1174.1 348.52 1162.62 351.57 1149.73 351.57C1136.83 351.57 1125.39 348.624 1115.41 342.73C1105.42 336.767 1097.62 328.273 1092.01 317.249C1086.46 306.225 1083.55 293.571 1083.27 279.288V270.759C1083.27 255.921 1085.97 242.852 1091.38 231.55C1096.86 220.179 1104.66 211.408 1114.78 205.237C1124.97 199.066 1136.55 195.98 1149.52 195.98C1162.35 195.98 1173.79 199.031 1183.84 205.133C1193.89 211.234 1201.7 219.936 1207.24 231.238C1212.86 242.47 1215.7 255.367 1215.77 269.927V276.896ZM1178.64 270.551C1178.64 255.505 1176.11 244.1 1171.05 236.334C1166.06 228.499 1158.88 224.582 1149.52 224.582C1131.22 224.582 1121.54 238.31 1120.5 265.767L1120.4 276.896C1120.4 291.733 1122.86 303.139 1127.78 311.113C1132.71 319.086 1140.02 323.073 1149.73 323.073C1158.95 323.073 1166.06 319.156 1171.05 311.321C1176.04 303.486 1178.57 292.219 1178.64 277.52V270.551ZM1310.57 309.241C1310.57 303.902 1308.67 299.742 1304.85 296.76C1301.11 293.779 1294.49 290.693 1284.99 287.504C1275.49 284.314 1267.72 281.229 1261.69 278.248C1242.07 268.61 1232.26 255.367 1232.26 238.518C1232.26 230.128 1234.68 222.744 1239.54 216.365C1244.46 209.917 1251.39 204.925 1260.34 201.389C1269.28 197.783 1279.34 195.98 1290.5 195.98C1301.38 195.98 1311.13 197.922 1319.72 201.805C1328.39 205.688 1335.12 211.234 1339.9 218.445C1344.69 225.587 1347.08 233.769 1347.08 242.99H1310.68C1310.68 236.819 1308.77 232.035 1304.96 228.638C1301.21 225.24 1296.12 223.542 1289.67 223.542C1283.15 223.542 1277.98 224.998 1274.17 227.91C1270.43 230.752 1268.55 234.393 1268.55 238.83C1268.55 242.713 1270.63 246.249 1274.79 249.438C1278.95 252.559 1286.27 255.817 1296.74 259.215C1307.21 262.543 1315.81 266.148 1322.53 270.031C1338.9 279.461 1347.08 292.461 1347.08 309.033C1347.08 322.276 1342.08 332.676 1332.1 340.234C1322.12 347.792 1308.42 351.57 1291.02 351.57C1278.75 351.57 1267.62 349.386 1257.63 345.018C1247.72 340.581 1240.23 334.548 1235.17 326.921C1230.18 319.225 1227.68 310.385 1227.68 300.4H1264.29C1264.29 308.513 1266.37 314.51 1270.53 318.393C1274.76 322.207 1281.59 324.113 1291.02 324.113C1297.05 324.113 1301.8 322.831 1305.27 320.265C1308.8 317.63 1310.57 313.956 1310.57 309.241ZM1473.34 308.305L1503.5 198.061H1544.27L1493.31 349.49H1453.37L1402.83 198.061H1443.28L1473.34 308.305ZM1639.28 321.201H1589.26L1580.52 349.49H1541.52L1597.06 198.061H1631.38L1687.33 349.49H1648.12L1639.28 321.201ZM1597.99 293.016H1630.55L1614.22 240.494L1597.99 293.016ZM1752.6 296.032H1732.84V349.49H1696.33V198.061H1755.92C1773.88 198.061 1787.92 202.047 1798.05 210.021C1808.17 217.995 1813.23 229.262 1813.23 243.822C1813.23 254.361 1811.08 263.098 1806.78 270.031C1802.55 276.965 1795.9 282.581 1786.81 286.88L1818.43 347.93V349.49H1779.33L1752.6 296.032ZM1732.84 267.847H1755.92C1762.86 267.847 1768.06 266.044 1771.53 262.439C1775.06 258.764 1776.83 253.668 1776.83 247.15C1776.83 240.633 1775.06 235.537 1771.53 231.862C1767.99 228.118 1762.79 226.246 1755.92 226.246H1732.84V267.847ZM1872.05 349.49H1835.65V198.061H1872.05V349.49ZM2023.53 276.896C2023.53 291.664 2020.79 304.734 2015.31 316.105C2009.84 327.476 2002.04 336.247 1991.91 342.418C1981.86 348.52 1970.39 351.57 1957.49 351.57C1944.59 351.57 1933.15 348.624 1923.17 342.73C1913.18 336.767 1905.38 328.273 1899.77 317.249C1894.22 306.225 1891.31 293.571 1891.03 279.288V270.759C1891.03 255.921 1893.73 242.852 1899.14 231.55C1904.62 220.179 1912.42 211.408 1922.54 205.237C1932.74 199.066 1944.31 195.98 1957.28 195.98C1970.11 195.98 1981.55 199.031 1991.6 205.133C2001.66 211.234 2009.46 219.936 2015 231.238C2020.62 242.47 2023.46 255.367 2023.53 269.927V276.896ZM1986.4 270.551C1986.4 255.505 1983.87 244.1 1978.81 236.334C1973.82 228.499 1966.64 224.582 1957.28 224.582C1938.98 224.582 1929.3 238.31 1928.26 265.767L1928.16 276.896C1928.16 291.733 1930.62 303.139 1935.54 311.113C1940.47 319.086 1947.78 323.073 1957.49 323.073C1966.71 323.073 1973.82 319.156 1978.81 311.321C1983.8 303.486 1986.33 292.219 1986.4 277.52V270.551ZM2118.33 309.241C2118.33 303.902 2116.43 299.742 2112.61 296.76C2108.87 293.779 2102.25 290.693 2092.75 287.504C2083.25 284.314 2075.48 281.229 2069.45 278.248C2049.83 268.61 2040.02 255.367 2040.02 238.518C2040.02 230.128 2042.44 222.744 2047.3 216.365C2052.22 209.917 2059.15 204.925 2068.1 201.389C2077.04 197.783 2087.1 195.98 2098.26 195.98C2109.15 195.98 2118.89 197.922 2127.49 201.805C2136.15 205.688 2142.88 211.234 2147.66 218.445C2152.45 225.587 2154.84 233.769 2154.84 242.99H2118.44C2118.44 236.819 2116.53 232.035 2112.72 228.638C2108.97 225.24 2103.88 223.542 2097.43 223.542C2090.91 223.542 2085.74 224.998 2081.93 227.91C2078.19 230.752 2076.32 234.393 2076.32 238.83C2076.32 242.713 2078.4 246.249 2082.56 249.438C2086.72 252.559 2094.03 255.817 2104.5 259.215C2114.97 262.543 2123.57 266.148 2130.29 270.031C2146.66 279.461 2154.84 292.461 2154.84 309.033C2154.84 322.276 2149.85 332.676 2139.86 340.234C2129.88 347.792 2116.18 351.57 2098.78 351.57C2086.51 351.57 2075.38 349.386 2065.39 345.018C2055.48 340.581 2047.99 334.548 2042.93 326.921C2037.94 319.225 2035.44 310.385 2035.44 300.4H2072.05C2072.05 308.513 2074.13 314.51 2078.29 318.393C2082.52 322.207 2089.35 324.113 2098.78 324.113C2104.81 324.113 2109.56 322.831 2113.03 320.265C2116.56 317.63 2118.33 313.956 2118.33 309.241ZM2182.14 390.26L2164.46 381.939L2168 374.867C2172.85 365.854 2175.38 357.256 2175.59 349.074V323.073H2203.67L2203.57 345.642C2203.5 353.616 2201.45 361.728 2197.43 369.979C2193.41 378.23 2188.31 384.99 2182.14 390.26ZM2400.14 298.216C2399.65 308.755 2396.81 318.081 2391.61 326.193C2386.41 334.236 2379.09 340.477 2369.66 344.914C2360.3 349.352 2349.59 351.57 2337.53 351.57C2317.63 351.57 2301.96 345.087 2290.52 332.122C2279.08 319.156 2273.36 300.851 2273.36 277.208V269.719C2273.36 254.881 2275.92 241.916 2281.05 230.822C2286.25 219.659 2293.71 211.061 2303.41 205.029C2313.12 198.927 2324.35 195.876 2337.11 195.876C2355.49 195.876 2370.25 200.73 2381.42 210.437C2392.58 220.075 2398.92 233.387 2400.45 250.375H2364.05C2363.77 241.153 2361.45 234.531 2357.08 230.51C2352.71 226.488 2346.06 224.478 2337.11 224.478C2328.03 224.478 2321.37 227.875 2317.14 234.67C2312.91 241.465 2310.69 252.316 2310.49 267.223V277.936C2310.49 294.091 2312.5 305.635 2316.52 312.569C2320.61 319.502 2327.61 322.969 2337.53 322.969C2345.92 322.969 2352.33 320.993 2356.77 317.041C2361.21 313.089 2363.56 306.814 2363.84 298.216H2400.14ZM2435.34 315.481C2440.89 315.481 2445.5 317.145 2449.18 320.473C2452.85 323.732 2454.69 327.927 2454.69 333.058C2454.69 338.188 2452.85 342.418 2449.18 345.746C2445.5 349.005 2440.89 350.634 2435.34 350.634C2429.73 350.634 2425.08 348.97 2421.41 345.642C2417.8 342.314 2416 338.119 2416 333.058C2416 327.996 2417.8 323.801 2421.41 320.473C2425.08 317.145 2429.73 315.481 2435.34 315.481ZM2563.64 321.201H2513.61L2504.87 349.49H2465.87L2521.41 198.061H2555.73L2611.69 349.49H2572.48L2563.64 321.201ZM2522.35 293.016H2554.9L2538.57 240.494L2522.35 293.016ZM2640.76 315.481C2646.3 315.481 2650.91 317.145 2654.59 320.473C2658.26 323.732 2660.1 327.927 2660.1 333.058C2660.1 338.188 2658.26 342.418 2654.59 345.746C2650.91 349.005 2646.3 350.634 2640.76 350.634C2635.14 350.634 2630.5 348.97 2626.82 345.642C2623.21 342.314 2621.41 338.119 2621.41 333.058C2621.41 327.996 2623.21 323.801 2626.82 320.473C2630.5 317.145 2635.14 315.481 2640.76 315.481Z" fill="#EC6F18"/>
<path d="M171.514 36.2266L204.531 123.959L237.47 36.2266H263.177V150.688H243.366V112.953L245.332 62.4834L211.528 150.688H197.299L163.574 62.562L165.539 112.953V150.688H145.729V36.2266H171.514ZM356.296 124.038H311.958L302.682 150.688H282.006L325.244 36.2266H343.089L386.405 150.688H365.651L356.296 124.038ZM317.539 108H350.714L334.127 60.5181L317.539 108ZM494.303 150.688H474.414L423.394 69.48V150.688H403.505V36.2266H423.394L474.571 117.749V36.2266H494.303V150.688ZM602.201 52.2637H566.511V150.688H546.779V52.2637H511.403V36.2266H602.201V52.2637ZM688.245 99.5889H641.234V134.808H696.185V150.688H621.345V36.2266H695.635V52.2637H641.234V83.8662H688.245V99.5889ZM807.228 150.688H787.339L736.319 69.48V150.688H716.43V36.2266H736.319L787.496 117.749V36.2266H807.228V150.688ZM855.773 150.688H835.963V36.2266H855.773V150.688ZM910.057 36.2266L943.075 123.959L976.014 36.2266H1001.72V150.688H981.91V112.953L983.875 62.4834L950.071 150.688H935.842L902.117 62.562L904.083 112.953V150.688H884.272V36.2266H910.057ZM1050.34 150.688H1030.53V36.2266H1050.34V150.688ZM1145.74 99.5889H1098.73V134.808H1153.68V150.688H1078.84V36.2266H1153.13V52.2637H1098.73V83.8662H1145.74V99.5889ZM1264.73 150.688H1244.84L1193.82 69.48V150.688H1173.93V36.2266H1193.82L1244.99 117.749V36.2266H1264.73V150.688ZM1372.62 52.2637H1336.93V150.688H1317.2V52.2637H1281.83V36.2266H1372.62V52.2637ZM1484.69 95.1079C1484.69 105.904 1482.51 115.705 1478.16 124.509C1473.81 133.314 1467.76 140.153 1460 145.027C1452.25 149.901 1443.65 152.338 1434.22 152.338C1424.89 152.338 1416.35 149.901 1408.59 145.027C1400.83 140.153 1394.73 133.34 1390.27 124.588C1385.82 115.836 1383.57 106.192 1383.51 95.6582V91.8062C1383.51 81.1672 1385.66 71.4977 1389.96 62.7979C1394.31 54.0456 1400.39 47.1538 1408.2 42.1226C1416.01 37.0913 1424.63 34.5757 1434.06 34.5757C1443.39 34.5757 1451.91 36.9865 1459.61 41.8081C1467.32 46.5773 1473.37 53.2594 1477.77 61.8545C1482.17 70.3971 1484.48 79.8569 1484.69 90.2339V95.1079ZM1464.96 91.6489C1464.96 79.6997 1462.07 69.9255 1456.31 62.3262C1450.54 54.7269 1443.13 50.9272 1434.06 50.9272C1425.2 50.9272 1417.84 54.7793 1411.97 62.4834C1406.15 70.1351 1403.25 80.0404 1403.25 92.1992V95.1079C1403.25 102.812 1404.58 109.835 1407.25 116.176C1409.93 122.465 1413.65 127.366 1418.42 130.877C1423.19 134.388 1428.45 136.144 1434.22 136.144C1442.81 136.144 1449.94 132.685 1455.6 125.767C1461.26 118.797 1464.35 109.599 1464.88 98.1738L1464.96 91.6489ZM1582.02 90.4697L1608.35 36.2266H1630.36L1592 108.551V150.688H1572.03V108.551L1533.59 36.2266H1555.68L1582.02 90.4697ZM1725.64 125.767L1754.73 36.2266H1776.59L1735.39 150.688H1716.13L1675.1 36.2266H1696.87L1725.64 125.767ZM1860.51 99.5889H1813.5V134.808H1868.45V150.688H1793.61V36.2266H1867.9V52.2637H1813.5V83.8662H1860.51V99.5889ZM1979.49 150.688H1959.6L1908.58 69.48V150.688H1888.69V36.2266H1908.58L1959.76 117.749V36.2266H1979.49V150.688ZM2087.39 52.2637H2051.7V150.688H2031.97V52.2637H1996.59V36.2266H2087.39V52.2637ZM2161.17 124.038H2116.83L2107.55 150.688H2086.88L2130.12 36.2266H2147.96L2191.28 150.688H2170.52L2161.17 124.038ZM2122.41 108H2155.59L2139 60.5181L2122.41 108ZM2268.2 121.208C2268.2 116.176 2266.42 112.298 2262.86 109.573C2259.35 106.847 2252.98 104.096 2243.75 101.318C2234.53 98.5407 2227.19 95.4486 2221.74 92.042C2211.31 85.4909 2206.1 76.9482 2206.1 66.4141C2206.1 57.1901 2209.84 49.5908 2217.34 43.6162C2224.89 37.6416 2234.66 34.6543 2246.66 34.6543C2254.63 34.6543 2261.73 36.1217 2267.97 39.0566C2274.2 41.9915 2279.1 46.1842 2282.67 51.6348C2286.23 57.0329 2288.01 63.0337 2288.01 69.6372H2268.2C2268.2 63.6626 2266.32 58.9982 2262.54 55.644C2258.82 52.2375 2253.48 50.5342 2246.5 50.5342C2240.01 50.5342 2234.95 51.923 2231.33 54.7007C2227.77 57.4784 2225.99 61.3566 2225.99 66.3354C2225.99 70.5282 2227.93 74.0396 2231.8 76.8696C2235.68 79.6473 2242.08 82.3726 2250.99 85.0454C2259.9 87.6659 2267.05 90.6794 2272.45 94.0859C2277.85 97.4401 2281.8 101.318 2284.32 105.721C2286.83 110.071 2288.09 115.181 2288.09 121.05C2288.09 130.589 2284.42 138.188 2277.09 143.848C2269.8 149.456 2259.9 152.26 2247.37 152.26C2239.09 152.26 2231.46 150.74 2224.49 147.7C2217.58 144.608 2212.18 140.363 2208.3 134.965C2204.47 129.567 2202.56 123.278 2202.56 116.098H2222.45C2222.45 122.596 2224.6 127.628 2228.9 131.191C2233.19 134.755 2239.35 136.537 2247.37 136.537C2254.29 136.537 2259.48 135.148 2262.94 132.371C2266.45 129.541 2268.2 125.819 2268.2 121.208ZM2345.8 150.688V36.2266H2380.86C2391.34 36.2266 2400.77 38.5588 2409.16 43.2231C2417.6 47.8351 2424.15 54.3076 2428.81 62.6406C2433.48 70.9212 2435.89 80.3024 2436.04 90.7842V95.1865C2436.04 105.878 2433.74 115.443 2429.13 123.88C2424.51 132.266 2418.02 138.791 2409.63 143.455C2401.25 148.119 2391.71 150.53 2381.02 150.688H2345.8ZM2365.61 52.2637V134.808H2379.29C2390.82 134.808 2399.83 131.27 2406.33 124.195C2412.83 117.12 2416.08 107.293 2416.08 94.7148V91.7275C2416.08 79.4639 2412.91 69.8206 2406.56 62.7979C2400.28 55.7751 2391.42 52.2637 2379.99 52.2637H2365.61ZM2524.53 99.5889H2477.51V134.808H2532.47V150.688H2457.63V36.2266H2531.92V52.2637H2477.51V83.8662H2524.53V99.5889Z" fill="#17ABC3"/>
</svg>
